<mxfile host="65bd71144e">
    <diagram id="tbGlQlogAaE3fG8-Wnos" name="Page-1">
        <mxGraphModel dx="1426" dy="864" grid="1" gridSize="10" guides="1" tooltips="1" connect="1" arrows="1" fold="1" page="1" pageScale="1" pageWidth="850" pageHeight="1100" math="0" shadow="0">
            <root>
                <mxCell id="0"/>
                <mxCell id="1" parent="0"/>
                <UserObject label="%name% age=20" placeholders="1" name="Variable" id="13">
                    <mxCell style="text;html=1;strokeColor=none;fillColor=none;align=center;verticalAlign=middle;whiteSpace=wrap;overflow=hidden;" parent="1" vertex="1">
                        <mxGeometry x="-310" y="260" width="190" height="20" as="geometry"/>
                    </mxCell>
                </UserObject>
                <UserObject label="%name% age=&quot;20&quot;" placeholders="1" name="Variable" id="14">
                    <mxCell style="text;html=1;strokeColor=none;fillColor=none;align=center;verticalAlign=middle;whiteSpace=wrap;overflow=hidden;" parent="1" vertex="1">
                        <mxGeometry x="-310" y="370" width="190" height="20" as="geometry"/>
                    </mxCell>
                </UserObject>
                <mxCell id="16" style="edgeStyle=none;html=1;" parent="1" source="15" target="14" edge="1">
                    <mxGeometry relative="1" as="geometry"/>
                </mxCell>
                <mxCell id="15" value="Actor" style="shape=umlActor;verticalLabelPosition=bottom;verticalAlign=top;html=1;outlineConnect=0;" parent="1" vertex="1">
                    <mxGeometry x="-455" y="290" width="30" height="60" as="geometry"/>
                </mxCell>
                <mxCell id="18" style="edgeStyle=none;html=1;" parent="1" source="17" target="13" edge="1">
                    <mxGeometry relative="1" as="geometry"/>
                </mxCell>
                <mxCell id="17" value="Garbage collector" style="sketch=0;html=1;verticalAlign=top;labelPosition=center;verticalLabelPosition=bottom;align=center;spacingTop=-6;fontSize=11;fontStyle=1;fontColor=#999999;shape=image;aspect=fixed;imageAspect=0;image=data:image/png,iVBORw0KGgoAAAANSUhEUgAAAwAAAAMACAYAAACTgQCOAAAACXBIWXMAAA7EAAAOxAGVKw4bAAASUklEQVR4nO3boZKlZxWG0e+QFsgWERERE4WNxFAFCgkWRy6CKlSocCPEYXIPSVUuABtHBGIEogUCk2pUbJIZeve/p5+1rmCLI76n/vecAwAAAAAAAAAAAAAAAAAAAAAAAAAAAAAAAAAAAAAAAAAAAAAAAAAAAAAAAAAAAAAAAAAAAAAAAAAAAAAAAAAAAAAAAAAAAAAAAAAAAAAAAAAAAAAAAAAAAAAAAAAAAAAAAAAAAAAAAAAAAAAAAAAAAAAAAAAAAAAAAAAAAAAAAAAAAAAAAAAAAAAAAAAAAAAAAAAAAAAAAAAAAAAAAAAAAAAAAAAAAAAAAAAAAAAAAAAAAAAAAAAAAAAAAAAAAABP53b1AcBP9/hw/n7O+eXVdwBP6ovb/fnT1UcAHXdXHwC8kQ/OOa+uPgJ4Uu9ffQDQ8rOrDwAAAJ6PAAAAgBABAAAAIQIAAABCBAAAAIQIAAAACBEAAAAQIgAAACBEAAAAQIgAAACAEAEAAAAhAgAAAEIEAAAAhAgAAAAIEQAAABAiAAAAIEQAAABAiAAAAIAQAQAAACECAAAAQgQAAACECAAAAAgRAAAAECIAAAAgRAAAAECIAAAAgBABAAAAIQIAAABCBAAAAIQIAAAACBEAAAAQIgAAACBEAAAAQIgAAACAEAEAAAAhAgAAAEIEAAAAhAgAAAAIEQAAABAiAAAAIEQAAABAiAAAAIAQAQAAACECAAAAQgQAAACECAAAAAgRAAAAEHK7+gDeDY8P58urb+Ccc87H55z7q48AntTrc843Vx/BeX27P3+4+gh4DgKAn+Tx4TxefQMADPr2dn8+uvoIeA4mQAAAECIAAAAgRAAAAECIAAAAgBABAAAAIQIAAABCBAAAAIQIAAAACBEAAAAQIgAAACBEAAAAQIgAAACAEAEAAAAhAgAAAEIEAAAAhAgAAAAIEQAAABAiAAAAIEQAAABAiAAAAIAQAQAAACECAAAAQgQAAACECAAAAAgRAAAAECIAAAAgRAAAAECIAAAAgBABAAAAIQIAAABCBAAAAIQIAAAACBEAAAAQIgAAACBEAAAAQIgAAACAEAEAAAAhAgAAAEIEAAAAhAgAAAAIEQAAABAiAAAAIEQAAABAiAAAAIAQAQAAACECAAAAQgQAAACE3F19wEv3+HB+f8753dV3AAA/6P3Hh/O3q4/4f93uzydX38B+t6sPeOkeH86n55zPrr4DAHj5bvfedvw4E6B57119AAAAfE8AzPvu6gMAAOB7AgAAAEIEwDwTIAAA1hAA80yAAABYQwAAAECIAJhnAgQAwBoCYJ4JEAAAawgAAAAIEQDzTIAAAFhDAMwzAQIAYA0BAAAAIQJgngkQAABrCIB5JkAAAKwhAAAAIEQAzDMBAgBgDQEwzwQIAIA1BAAAAIQIgHkmQAAArCEA5pkAAQCwhgAAAIAQATDPBAgAgDUEwDwTIAAA1hAAAAAQIgDmmQABALCGAJhnAgQAwBoCAAAAQgTAPBMgAADWEADzTIAAAFhDAAAAQIgAAACAEAEAAAAhAgAAAEIEAAAAhAgAAAAIEQAAABAiAAAAIEQAAABAiAAAAIAQAQAAACECAAAAQgQAAACECAAAAAgRAAAAECIAAAAgRAAAAECIAAAAgBABAAAAIQIAAABCBAAAAIQIAAAACBEAAAAQIgAAACBEAAAAQIgAAACAEAEAAAAhAgAAAEIEAAAAhAgAAAAIEQAAABAiAAAAIEQAAABAiAAAAIAQAQAAACECAAAAQgQAAACECAAAAAgRAAAAECIAAAAgRAAAAECIAAAAgBABAAAAIQIAAABCBAAAAIQIAAAACBEAAAAQIgAAACBEAAAAQIgAAACAEAEAAAAhAgAAAEIEAAAAhAgAAAAIEQAAABAiAAAAIEQAAABAiAAAAIAQAQAAACECAAAAQgQAAACECAAAAAgRAAAAECIAAAAgRAAAAECIAAAAgBABAAAAIQIAAABCblcfAM/l8eH885zz6uo7AIAf9Jfb/fnr1Ue8ZL4AAABAiAAAAIAQAQAAACECAAAAQgQAAACECAAAAAgRAAAAECIAAAAgRAAAAECIAAAAgBABAAAAIQIAAABCBAAAAIQIAAAACBEAAAAQIgAAACBEAAAAQIgAAACAEAEAAAAhAgAAAEIEAAAAhAgAAAAIEQAAABAiAAAAIEQAAABAiAAAAIAQAQAAACECAAAAQgQAAACECAAAAAgRAAAAECIAAAAgRAAAAECIAAAAgBABAAAAIQIAAABCBAAAAIQIAAAACBEAAAAQIgAAACBEAAAAQIgAAACAEAEAAAAhAgAAAEIEAAAAhAgAAAAIEQAAABAiAAAAIOTu6gPgGf3q+M3zND4853x99REA8DY8hsi43Z9/XX0DL8Pjw9UXAMDbMwECAIAQAQAAACECAAAAQgQAAACECAAAAAgRAAAAECIAAAAgRAAAAECIAAAAgBABAAAAIQIAAABCBAAAAIQIAAAACBEAAAAQIgAAACBEAAAAQIgAAACAEAEAAAAhAgAAAEIEAAAAhAgAAAAIEQAAABAiAAAAIEQAAABAiAAAAIAQAQAAACECAAAAQgQAAACECAAAAAgRAAAAECIAAAAgRAAAAECIAAAAgBABAAAAIQIAAABCBAAAAIQIAAAACBEAAAAQIgAAACBEAAAAQIgAAACAEAEAAAAhAgAAAEIEAAAAhAgAAAAIEQAAABAiAAAAIOTu6gMA3kGvzzm/ufoIXozfnnP+fPURQIcAAHhDt/vz33POV1ffwcvw+HBeXX0D0GICBAAAIQIAAABCBAAAAIQIAAAACBEAAAAQIgAAACBEAAAAQIgAAACAEAEAAAAhAgAAAEIEAAAAhAgAAAAIEQAAABAiAAAAIEQAAABAiAAAAIAQAQAAACECAAAAQgQAAACECAAAAAgRAAAAECIAAAAgRAAAAECIAAAAgBABAAAAIQIAAIBN3rv6gJdOAAAAsMl3Vx/w0gkAAAAIEQAAAGxiAjRMAAAAsIkJ0DABAAAAIQIAAIBNTICGCQAAADYxARomAAAAIEQAAACwiQnQMAEAAMAmJkDDBAAAAIQIAAAANjEBGiYAAADYxARomAAAAIAQAQAAwCYmQMMEAAAAm5gADRMAAAAQIgAAANjEBGiYAAAAYBMToGECAAAAQgQAAACbmAANu7v6AIB3zePD+fk555dX38GL8YurD4BlTICGCQCAN/fBOefLq48AgLdhAgQAwCYmQMMEAAAAm5gADRMAAAAQIgAAANjEBGiYAAAAYBMToGECAAAAQgQAAACbmAANEwAAAGxiAjRMAAAAQIgAAABgExOgYQIAAIBNTICGCQAAAAgRAAAAbGICNEwAAACwiQnQMAEAAAAhAgAAgE1MgIYJAAAANjEBGiYAAAAgRAAAALCJCdAwAQAAwCYmQMMEAAAAhAgAAAA2MQEaJgAAANjEBGiYAAAAgBABAADAJiZAwwQAAACbmAANEwAAABAiAAAA2MQEaJgAAABgExOgYQIAAABCBAAAAJuYAA0TAAAAbGICNEwAAABAiAAAAGATE6BhAgAAgE1MgIYJAAAACBEAAABsYgI0TAAAALCJCdAwAQAAACECAACATUyAhgkAAAA2MQEaJgAAACBEAAAAsIkJ0DABAADAJiZAwwQAAACECAAAADYxARomAAAA2MQEaNjd1QfAc3l8OB8ev3mexodXHwAAb8tjiJKvzzmvrj4CAPhBJkDDTIAAANjEBGiYAAAAgBABAADAJiZAwwQAAACbmAANEwAAABAiAAAA2MQEaJgAAABgExOgYQIAAABCBAAAAJuYAA0TAAAAbGICNEwAAABAiAAAAGATE6BhAgAAgE1MgIYJAAAACBEAAABsYgI0TAAAALCJCdAwAQAAACECAACATUyAhgkAAAA2MQEaJgAAACBEAAAAsIkJ0DABAADAJiZAwwQAAACECAAAADYxARomAAAA2MQEaJgAAACAEAEAAMAmJkDDBAAAAJuYAA0TAAAAECIAAADYxARomAAAAGATE6BhAgAAAEIEAAAAm5gADRMAAABsYgI0TAAAAECIAAAAYBMToGECAACATUyAhgkAAAAIEQAAAGxiAjRMAAAAsIkJ0DABAAAAIQIAAIBNTICGCQAAADYxARomAAAAIEQAAACwiQnQMAEAAMAmJkDDBAAAAIQIAAAANjEBGna7+oCX7vHhfHrO+ezqOwCAl+92723Hj/MFYJ6KBQBgDQEAAAAhAmCef7IDALCGAJhnAgQAwBoCAAAAQgTAPBMgAADWEADzTIAAAFhDAAAAQIgAmGcCBADAGgJgngkQAABrCAAAAAgRAPNMgAAAWEMAzDMBAgBgDQEAAAAhAmCeCRAAAGsIgHkmQAAArCEAAAAgRADMMwECAGANATDPBAgAgDUEAAAAhAiAeSZAAACsIQDmmQABALCGAAAAgBABMM8ECACANQTAPBMgAADWEAAAABAiAOaZAAEAsIYAmGcCBADAGgIAAABCBMA8EyAAANYQAPNMgAAAWEMAAABAiACYZwIEAMAaAmCeCRAAAGsIAAAACBEA80yAAABYQwDMMwECAGANAQAAACECYJ4JEAAAawiAeSZAAACsIQAAACBEAMwzAQIAYA0BMM8ECACANQQAAACECIB5JkAAAKwhAOaZAAEAsIYAAACAEAEwzwQIAIA1BMA8EyAAANYQAAAAECIA5pkAAQCwhgCYZwIEAMAaAgAAAEIEwDwTIAAA1hAA80yAAABYQwAAAECIAJhnAgQAwBoCYJ4JEAAAawgAAAAIEQDzTIAAAFhDAMwzAQIAYA0BAAAAIQJgngkQAABrCIB5JkAAAKwhAAAAIEQAzDMBAgBgDQEwzwQIAIA1BAAAAIQIgHkmQAAArCEA5pkAAQCwhgAAAIAQATDPBAgAgDUEwDwTIAAA1hAAAAAQIgDmmQABALCGAJhnAgQAwBoCAAAAQgTAPBMgAADWEADzTIAAAFhDAAAAQIgAmGcCBADAGgJgngkQAABrCAAAAAgRAPNMgAAAWEMAzDMBAgBgDQEAAAAhAmCeCRAAAGsIgHkmQAAArCEAAAAgRADMMwECAGANATDPBAgAgDUEAAAAhAiAeSZAAACsIQDmmQABALCGAAAAgBABMM8ECACANQTAPBMgAADWuLv6gIB/nHM+v/qIJ/DHqw8AgEH/Oed8cfUR8BxuVx/Au+Hx4TxefQMADPr2dn8+uvoIeA4mQAAAECIAAAAgRAAAAECIAAAAgBABAAAAIQIAAABCBAAAAIQIAAAACBEAAAAQIgAAACBEAAAAQIgAAACAEAEAAAAhAgAAAEIEAAAAhAgAAAAIEQAAABAiAAAAIEQAAABAiAAAAIAQAQAAACECAAAAQgQAAACECAAAAAgRAAAAECIAAAAgRAAAAECIAAAAgBABAAAAIQIAAABCBAAAAIQIAAAACBEAAAAQIgAAACBEAAAAQIgAAACAEAEAAAAhAgAAAEIEAAAAhAgAAAAIEQAAABAiAAAAIEQAAABAiAAAAIAQAQAAACECAAAAQgQAAACE3F19AO+Mr64+gHPOOR+fc+6vPgJ4Uq/POd9cfQTn9dUHwHO5XX0A8NM9Ppwvzzm/vvoO4El9frs/n1x9BNBhAgQAACECAAAAQgQAAACECAAAAAgRAAAAECIAAAAgRAAAAECIAAAAgBABAAAAIQIAAABCBAAAAIQIAAAACBEAAAAQIgAAACBEAAAAQIgAAACAEAEAAAAhAgAAAEIEAAAAhAgAAAAIEQAAABAiAAAAIEQAAABAiAAAAIAQAQAAACECAAAAQgQAAACECAAAAAgRAAAAECIAAAAgRAAAAECIAAAAgBABAAAAIQIAAABCBAAAAIQIAAAACBEAAAAQIgAAACBEAAAAQIgAAACAEAEAAAAhAgAAAEIEAAAAhAgAAAAIEQAAABAiAAAAIEQAAABAyN3VBwBv5PU559urjwCe1L+vPgAAAAAAAAAAAAAAAAAAAAAAAAAAAAAAAAAAAAAAAAAAAAAAAAAAAAAAAAAAAAAAAAAAAAAAAAAAAAAAAAAAAAAAAAAAAAAAAAAAAAAAAAAAAAAAAAAAAAAAAAAAAAAAAAAAAAAAAAAAAAAAAAAAAAAAAAAAAAAAAAAAAAAAAAAAAAAAAAAAAAAAAAAAAAAAAAAAAAAAAAAAAAAAAAAAAAAAAAAAAAAAAAAAAAAAAAAAAAAAAAAAAAAAAAAAAAAAAN7W/wCF05bRJi3DxgAAAABJRU5ErkJggg==;" parent="1" vertex="1">
                    <mxGeometry x="-60" y="298" width="42" height="42" as="geometry"/>
                </mxCell>
                <mxCell id="19" value="Addresses in memory&lt;br&gt;&lt;div&gt;&lt;font color=&quot;#000000&quot;&gt;&lt;br&gt;&lt;/font&gt;&lt;br&gt;&lt;/div&gt;" style="sketch=0;pointerEvents=1;shadow=0;dashed=0;html=1;strokeColor=none;fillColor=#005F4B;labelPosition=center;verticalLabelPosition=bottom;verticalAlign=top;align=center;outlineConnect=0;shape=mxgraph.veeam2.ram;" vertex="1" parent="1">
                    <mxGeometry x="-235" y="170" width="40" height="19" as="geometry"/>
                </mxCell>
                <mxCell id="21" value="&lt;span style=&quot;color: rgb(0, 0, 0); text-wrap-mode: nowrap;&quot;&gt;Interpreter language with JIT compiler option starting from 3.13 -&amp;nbsp;&lt;/span&gt;&lt;div&gt;&lt;span style=&quot;color: rgb(0, 0, 0); text-wrap-mode: nowrap;&quot;&gt;instructions are executed and transformed to machine code at execution time.&amp;nbsp;&lt;/span&gt;&lt;div&gt;&lt;span style=&quot;color: rgb(0, 0, 0); text-wrap-mode: nowrap;&quot;&gt;Errors come at execution time&lt;/span&gt;&lt;br style=&quot;text-wrap-mode: nowrap;&quot;&gt;&lt;span style=&quot;color: rgb(0, 0, 0); text-wrap-mode: nowrap;&quot;&gt;(2-9% improvements but huge leap to further optimizations)&lt;/span&gt;&lt;div style=&quot;text-wrap-mode: nowrap;&quot;&gt;&lt;font&gt;Use Cases - ML, Backend, Mobile, Data, Scripting, Quantum computing&lt;br&gt;Slower than compiled language, but expressive, easy to learn, huge community&lt;br&gt;&lt;br&gt;&lt;/font&gt;&lt;/div&gt;&lt;/div&gt;&lt;/div&gt;" style="text;html=1;align=center;verticalAlign=middle;whiteSpace=wrap;rounded=0;" vertex="1" parent="1">
                    <mxGeometry x="-740" y="30" width="845" height="130" as="geometry"/>
                </mxCell>
                <mxCell id="22" value="&lt;font style=&quot;font-size: 41px;&quot;&gt;.&lt;/font&gt;" style="text;html=1;align=center;verticalAlign=middle;whiteSpace=wrap;rounded=0;" vertex="1" parent="1">
                    <mxGeometry x="-78" y="280" width="60" height="30" as="geometry"/>
                </mxCell>
            </root>
        </mxGraphModel>
    </diagram>
</mxfile>